<svg width="16" height="16" viewBox="0 0 16 16" fill="none" xmlns="http://www.w3.org/2000/svg">
<path d="M7.11111 13.2333C6.67542 13.2333 6.32222 12.8801 6.32222 12.4444C6.32222 12.0087 6.67542 11.6555 7.11111 11.6555H8.88889C9.32458 11.6555 9.67778 12.0087 9.67778 12.4444C9.67778 12.8801 9.32458 13.2333 8.88889 13.2333H7.11111ZM0.1 3.55555C0.1 3.11985 0.453198 2.76666 0.888889 2.76666H15.1111C15.5468 2.76666 15.9 3.11985 15.9 3.55555C15.9 3.99124 15.5468 4.34443 15.1111 4.34443H0.888889C0.453198 4.34443 0.1 3.99124 0.1 3.55555ZM3.55556 8.78888C3.11986 8.78888 2.76667 8.43568 2.76667 7.99999C2.76667 7.5643 3.11986 7.2111 3.55556 7.2111H12.4444C12.8801 7.2111 13.2333 7.5643 13.2333 7.99999C13.2333 8.43568 12.8801 8.78888 12.4444 8.78888H3.55556Z" fill="#1E1437" stroke="white" stroke-width="0.2"/>
</svg>
