<svg width="8" height="9" viewBox="0 0 8 9" fill="none" xmlns="http://www.w3.org/2000/svg">
<path fill-rule="evenodd" clip-rule="evenodd" d="M0.173637 8.4341C0.237887 8.47703 0.313423 8.49993 0.390692 8.4999C0.441998 8.49997 0.492818 8.4899 0.540225 8.47027C0.587632 8.45067 0.630692 8.42187 0.666935 8.38553L3.99999 5.05247L7.33306 8.38553C7.3693 8.42187 7.41236 8.45067 7.45976 8.47027C7.50719 8.4899 7.558 8.49997 7.60929 8.4999C7.68656 8.49993 7.76209 8.47703 7.82636 8.4341C7.89063 8.39117 7.9407 8.33017 7.97026 8.25877C7.99983 8.1874 8.00756 8.10883 7.9925 8.03307C7.9774 7.95727 7.9402 7.88767 7.88556 7.83303L4.5525 4.49997L7.88556 1.16691C7.95883 1.09365 8 0.99428 8 0.89067C8 0.787057 7.95883 0.687689 7.88556 0.614424C7.81229 0.54116 7.71293 0.5 7.60929 0.5C7.5057 0.5 7.40633 0.54116 7.33306 0.614424L3.99999 3.9475L0.666935 0.614424C0.593668 0.54116 0.494302 0.5 0.390688 0.5C0.287078 0.5 0.187709 0.54116 0.114445 0.614424C0.04118 0.687689 2.03662e-05 0.787057 2.03662e-05 0.89067C2.03662e-05 0.99428 0.04118 1.09365 0.114445 1.16691L3.44749 4.49997L0.114446 7.83303C0.0598023 7.88767 0.0225879 7.95727 0.00750977 8.03307C-0.00756833 8.10883 0.000167335 8.1874 0.0297383 8.25877C0.0593093 8.33017 0.109387 8.39117 0.173637 8.4341Z" fill="white"/>
</svg>
