<?xml version="1.0" encoding="UTF-8"?>
<svg width="129" height="46" viewBox="0 0 129 46" fill="none" xmlns="http://www.w3.org/2000/svg">
<path d="M1.63291 25.4046H0V0.196106H3.1927C5.34717 0.196106 7.42852 0.914203 7.42852 4.22589V11.0713C7.42852 14.4208 5.34717 15.1389 3.1927 15.1389H1.63291V25.4046ZM1.63291 1.59922V13.7358H3.05622C5.00596 13.7358 5.80536 13.0507 5.80536 11.1421V4.19282C5.80536 2.30313 5.02546 1.59922 3.05622 1.59922H1.63291Z" fill="#FAF8F4"/>
<path d="M18.6544 24.001H23.2607V25.4183H17.0215V0.195557H23.1534V1.61283H18.6544V11.5904H22.705V13.0077H18.6544V24.001Z" fill="#FAF8F4"/>
<path d="M38.196 21.5869H33.7652L33.2777 25.4041H31.8154L35.0861 0.195557H37.1334L40.3992 25.4041H38.7273L38.196 21.5869ZM33.9553 20.2169H38.0059L36.8555 11.2881C36.5582 8.874 36.2267 6.06306 36.0025 2.68051C35.7393 6.06306 35.442 8.874 35.1446 11.2881L33.9553 20.2169Z" fill="#FAF8F4"/>
<path d="M51.42 13.5557V25.4041H49.7871V0.195557H53.2625C55.378 0.195557 57.3862 0.804982 57.3862 4.12139V9.45035C57.3862 11.5385 56.5332 12.4739 55.3049 12.8707C56.5332 13.2675 57.3862 14.2029 57.3862 16.291V20.472C57.3862 23.8545 57.6105 24.5773 57.9419 25.4041H56.1238C55.8017 24.2051 55.6638 22.9666 55.7143 21.7286V16.617C55.7143 14.3116 55.0465 13.5557 52.5899 13.5557H51.42ZM53.0188 12.1384C55.027 12.1384 55.6948 11.5951 55.6948 9.65348V4.10724C55.6948 2.21754 55.027 1.58448 53.0188 1.58448H51.42V12.1384H53.0188Z" fill="#FAF8F4"/>
<path d="M67.584 0.195557H69.2169V24.001H73.5648V25.4183H67.584V0.195557Z" fill="#FAF8F4"/>
<path d="M89.1331 14.8501L91.5118 0.205014H93.8515V25.4135H92.2576V9.56845C92.2576 7.51341 92.3356 4.4899 92.4087 2.36399C92.1503 4.4899 91.7409 7.44253 91.4338 9.49285L88.8455 25.4041H87.3589L84.7559 9.48342C84.4245 7.4331 84.015 4.48044 83.7811 2.35454C83.8591 4.48044 83.9322 7.50395 83.9322 9.55899V25.4041H82.5576V0.195557H84.8583L87.237 14.8407C87.6123 17.2028 87.9828 19.7775 88.168 22.1538C88.3581 19.787 88.7627 17.1934 89.1331 14.8501Z" fill="#FAF8F4"/>
<path d="M109.605 21.5869H105.184L104.697 25.4041H103.234L106.505 0.195557H108.547L111.818 25.4041H110.146L109.605 21.5869ZM105.369 20.2169H109.42L108.27 11.2881C107.972 8.874 107.636 6.06306 107.412 2.68051C107.153 6.06306 106.856 8.874 106.559 11.2881L105.369 20.2169Z" fill="#FAF8F4"/>
<path d="M129 0.195612V25.4041H127.353L123.487 8.18901C123.151 6.67725 122.741 4.30097 122.371 2.46324C122.483 4.30097 122.556 6.819 122.556 8.29769V25.4041H121.162V0.195612H123.351L126.66 14.888C126.992 16.3289 127.401 18.9556 127.772 20.7602C127.699 18.9556 127.587 16.258 127.587 14.8171V0.171997L129 0.195612Z" fill="#FAF8F4"/>
<path d="M3.07969 43.0344H0.950668L0.715936 44.8726H0L1.57506 32.7331H2.55858L4.13363 44.8726H3.3285L3.07969 43.0344ZM1.03987 42.3747H2.99049L2.44591 38.0749C2.30272 36.9123 2.14075 35.5587 2.03278 33.9298C1.90837 35.5587 1.76518 36.9123 1.622 38.0749L1.03987 42.3747Z" fill="#FAF8F4"/>
<path d="M9.44983 44.1969H11.6681V44.8795H8.66113V32.7331H11.6141V33.4156H9.44983V38.2205H11.4005V38.903H9.44983V44.1969Z" fill="#FAF8F4"/>
<path d="M16.8394 43.1027C16.8394 43.9194 17.107 44.3358 17.8582 44.3358C18.6093 44.3358 18.8769 43.9263 18.8769 43.1027V42.063C18.8769 38.8552 16.0859 38.9076 16.0859 35.1788V34.5372C16.0859 33.1722 16.7291 32.5944 17.8746 32.5944C19.0201 32.5944 19.6633 33.1654 19.6633 34.5714V36.6462H18.9121V34.494C18.9121 33.6795 18.6445 33.2632 17.8934 33.2632C17.1422 33.2632 16.8911 33.6795 16.8911 34.494V35.2584C16.8911 38.4662 19.6633 38.4139 19.6633 42.1426V43.0526C19.6633 44.4177 19.0201 44.9955 17.8746 44.9955C16.7291 44.9955 16.0859 44.4222 16.0859 43.0185V40.5911H16.8371L16.8394 43.1027Z" fill="#FAF8F4"/>
<path d="M27.3602 33.4088H25.9518V44.8726H25.1467V33.4088H23.7383V32.7263H27.3532L27.3602 33.4088Z" fill="#FAF8F4"/>
<path d="M32.4781 44.8726H31.6895V32.7331H32.4781V38.2136H34.6259V32.7331H35.4311V44.8726H34.6259V38.8893H32.4781V44.8726Z" fill="#FAF8F4"/>
<path d="M41.2985 44.1969H43.5237V44.8795H40.5098V32.7331H43.4627V33.4156H41.2985V38.2205H43.2491V38.903H41.2985V44.1969Z" fill="#FAF8F4"/>
<path d="M51.1043 33.4088H49.6959V44.8726H48.8908V33.4088H47.4824V32.7263H51.0973L51.1043 33.4088Z" fill="#FAF8F4"/>
<path d="M55.4154 32.7331H56.1994V44.8726H55.4131L55.4154 32.7331Z" fill="#FAF8F4"/>
<path d="M62.9288 44.3357C63.68 44.3357 64.0039 43.9194 64.0039 43.1026V40.086H64.755V43.0435C64.755 44.4472 64.0508 45.0205 62.91 45.0205C61.7692 45.0205 61.0674 44.4472 61.0674 43.0435V34.5804C61.0674 33.1744 61.7716 32.6034 62.91 32.6034C64.0485 32.6034 64.755 33.1744 64.755 34.5804V37.1989H64.0039V34.5099C64.0039 33.6954 63.68 33.2791 62.9288 33.2791C62.1777 33.2791 61.8561 33.6954 61.8561 34.5099V43.1117C61.8561 43.9262 62.1777 44.3357 62.9288 44.3357Z" fill="#FAF8F4"/>
<path d="M75.9728 43.1027C75.9728 43.9194 76.2404 44.3358 76.9916 44.3358C77.7427 44.3358 78.0127 43.9194 78.0127 43.1027V42.063C78.0127 38.8552 75.2217 38.9076 75.2217 35.1788V34.5372C75.2217 33.1722 75.8648 32.5944 77.0103 32.5944C78.1558 32.5944 78.799 33.1654 78.799 34.5714V36.6462H78.0479V34.494C78.0479 33.6795 77.7803 33.2632 77.0291 33.2632C76.278 33.2632 76.0268 33.6795 76.0268 34.494V35.2584C76.0268 38.4662 78.799 38.4139 78.799 42.1426V43.0526C78.799 44.4177 78.1558 44.9955 77.0103 44.9955C75.8648 44.9955 75.2217 44.4222 75.2217 43.0185V40.5911H75.9728V43.1027Z" fill="#FAF8F4"/>
<path d="M85.3835 44.3357C86.137 44.3357 86.4586 43.9535 86.4586 43.1732V32.7331H87.2097V43.1209C87.2097 44.4563 86.5055 45.0114 85.3671 45.0114C84.2286 45.0114 83.5244 44.4563 83.5244 43.1209V32.7331H84.3108V43.1732C84.3108 43.9535 84.6324 44.3357 85.3835 44.3357Z" fill="#FAF8F4"/>
<path d="M92.97 39.1669V44.8726H92.1836V32.7331H93.8478C94.8666 32.7331 95.8337 33.0266 95.8337 34.6236V37.1899C95.8337 38.1954 95.4229 38.6459 94.8314 38.837C95.4229 39.0281 95.8337 39.4785 95.8337 40.4841V42.4975C95.8337 44.1264 95.9416 44.4745 96.1013 44.8726H95.2257C95.0706 44.2952 95.0042 43.6988 95.0285 43.1027V40.6411C95.0285 39.5309 94.707 39.1669 93.5263 39.1669H92.97ZM93.7399 38.4844C94.707 38.4844 95.0285 38.2227 95.0285 37.2877V34.6168C95.0285 33.7068 94.707 33.402 93.7399 33.402H92.97V38.4844H93.7399Z" fill="#FAF8F4"/>
<path d="M103.491 38.9758H102.418V38.3161H104.261V44.8727H103.85L103.777 44.1265C103.51 44.7521 102.972 45.0115 102.256 45.0115C101.237 45.0115 100.557 44.4745 100.557 43.0345V34.5714C100.557 33.1654 101.261 32.5944 102.399 32.5944C103.538 32.5944 104.244 33.1654 104.244 34.5714V37.0739H103.491V34.4895C103.491 33.675 103.169 33.2587 102.418 33.2587C101.667 33.2587 101.345 33.675 101.345 34.4895V43.0913C101.345 43.9081 101.667 44.3244 102.418 44.3244C103.169 44.3244 103.491 43.9081 103.491 43.0913V38.9758Z" fill="#FAF8F4"/>
<path d="M109.931 44.1969H112.151V44.8795H109.145V32.7331H112.097V33.4156H109.931V38.2205H111.882V38.903H109.931V44.1969Z" fill="#FAF8F4"/>
<path d="M117.626 39.1669V44.8726H116.84V32.7331H118.504C119.523 32.7331 120.49 33.0266 120.49 34.6236V37.1899C120.49 38.1954 120.077 38.6459 119.488 38.837C120.077 39.0281 120.49 39.4785 120.49 40.4841V42.4975C120.49 44.1264 120.598 44.4745 120.758 44.8726H119.882C119.727 44.2952 119.66 43.6988 119.685 43.1027V40.6411C119.685 39.5309 119.363 39.1669 118.18 39.1669H117.626ZM118.396 38.4844C119.363 38.4844 119.685 38.2227 119.685 37.2877V34.6168C119.685 33.7068 119.363 33.402 118.396 33.402H117.626V38.4844H118.396Z" fill="#FAF8F4"/>
<path d="M128.22 32.7331H128.924L127.241 40.6229V44.8726H126.436V40.6934L124.736 32.7308H125.541L126.401 36.9101C126.56 37.7245 126.757 38.7483 126.884 39.7379C126.99 38.7483 127.187 37.7245 127.354 36.9101L128.22 32.7331Z" fill="#FAF8F4"/>
</svg>
