<svg width="39" height="40" viewBox="0 0 39 40" fill="none" xmlns="http://www.w3.org/2000/svg">
<path d="M0 19.833C1.14461 19.6457 2.28923 19.396 3.45465 19.2711C5.86874 19.0005 8.28281 18.834 10.7177 18.5635C11.538 18.4613 12.3512 18.3084 13.1526 18.1057C13.9018 17.9392 14.1308 17.4189 13.7353 16.7321C12.7572 15.0464 11.7583 13.3815 10.7801 11.7167C10.6171 11.3538 10.4848 10.9779 10.3847 10.5929L13.5064 12.4867C14.5469 13.0902 15.5875 13.7353 16.6697 14.2556C17.1276 14.4845 17.5646 14.2556 17.6894 13.6521C17.9076 12.9083 18.0744 12.1503 18.1889 11.3837C18.4178 9.30256 18.5635 7.09659 18.7924 4.95304C18.9494 3.28675 19.2135 1.63231 19.5833 0C19.5833 0.249733 19.5833 0.499468 19.7081 0.749201C20.1243 4.6825 20.5198 8.63661 20.9152 12.5699C20.9152 12.8196 20.9152 13.0694 21.0192 13.3191C21.2482 14.2348 21.8725 14.5886 22.6841 14.1307C24.2866 13.2151 25.8474 12.2161 27.4499 11.2796C27.7842 11.0761 28.1318 10.8953 28.4904 10.7385C28.4189 11.0943 28.3144 11.4427 28.1783 11.7791C27.1377 13.4856 26.0972 15.1921 25.0774 16.9402C24.7028 17.6062 25.0774 18.0432 25.8266 18.1889C26.8463 18.3762 27.9077 18.5635 28.9274 18.6884C32.0699 19.0838 35.1708 19.4376 38.3549 19.7914C38.5991 19.8191 38.8267 19.9292 39 20.1035L38.1884 20.27L26.5342 21.4771C24.9941 21.6436 24.6404 22.2055 25.3896 23.5582C26.1388 24.9109 27.2834 26.5966 28.2199 28.1366C28.3557 28.4701 28.4738 28.8104 28.5737 29.1564C28.0534 28.9066 27.762 28.8234 27.4915 28.6569C25.9514 27.7412 24.4531 26.7839 22.8922 25.8682C21.8725 25.2855 21.1649 25.6393 20.9776 26.8255C20.7903 28.0118 20.6654 29.198 20.5406 30.405C20.2492 33.3394 19.9787 36.2738 19.7081 39.2081C19.7081 39.3954 19.7081 39.5619 19.7081 39.8117C19.5833 39.5411 19.5833 39.5411 19.5833 39.5411C19.3335 37.897 19.0838 36.2738 18.8757 34.6297C18.5219 31.9034 18.2514 29.198 17.856 26.4925C17.7103 25.4104 17.2524 25.2023 16.3367 25.7225C14.7343 26.6174 13.1735 27.5955 11.6126 28.5528L10.7801 28.9899L10.5512 28.761C11.0715 27.8453 11.6126 26.9504 12.1537 26.0347C12.6948 25.119 13.4232 23.9536 14.0059 22.809C14.2973 22.2679 13.777 21.6019 13.0069 21.5187L6.28493 20.8111L0.0415994 20.0619L0 19.833Z" fill="black"/>
</svg>
